<svg xmlns="http://www.w3.org/2000/svg" viewBox="627.3 627.3 793.4 793.4"><path d="M871.6 684.1c-10.5 2.6-22.7 12.1-28.5 22.2-5.9 10.4-6.1 12.2-6.1 65.9V821h-51.8c-55.3 0-57.8.2-67.5 5.1-6.4 3.3-16.3 13.4-19.6 20.1-9.1 18.2-5.7 39.5 8.6 53.6 3.2 3.1 8.1 6.9 10.9 8.4 10.5 5.7 12.3 5.8 68.1 5.8H837v34.6l-13.2 1.1c-39 3.5-83.2 15-115.8 30.1l-14.5 6.8-.3 41.8c-.1 23 .1 41.6.5 41.4.5-.2 6-3 12.3-6.2 26.9-13.8 61.1-25.2 93-31 9.1-1.6 31.9-4.6 35.7-4.6h2.3v50l-2.2.4c-1.3.2-7.5.9-13.7 1.6-25.5 2.5-57.8 9.5-82.6 17.8-10.9 3.7-24.6 9.5-39.7 16.7l-5.8 2.7v83.5l11.6-5.9c30.2-15.5 66.6-27.4 101.4-33.2 9.4-1.5 25.8-3.6 29.3-3.6 1.6 0 1.7 4.6 1.7 83.2 0 53.8.4 84.9 1.1 87.8 3 13.1 13.8 26.2 26.6 32.3 6.5 3.1 7.3 3.2 18.9 3.2 12 0 12 0 19.9-3.9 4.9-2.4 9.8-5.8 12.7-8.8 5.8-5.9 11.5-17.2 12.8-25.3.6-3.6 1-37.5 1-84.4-.1-43.1.1-78.6.4-78.8.8-.8 25 5.5 39.1 10.2 7.2 2.3 20.4 7.5 29.5 11.5 29.5 12.9 32.3 14.1 46 19.5 22.6 8.9 37.8 13.1 60 16.9l13.5 2.2.5 53c.5 52.4.5 53 2.8 58.6 3.4 8.4 10.2 17 17 21.7 9.9 6.7 13.1 7.6 26.8 7.6 11.8 0 12.1 0 19.5-3.7 9.7-4.8 16.7-12.1 21.7-22.5l3.7-7.8.3-52.7.3-52.8 2.2-.4c1.2-.2 7.2-1 13.2-1.6 40.1-4.4 89.9-18 123.8-34l4.7-2.2v-41.4c0-22.8-.2-41.4-.4-41.4s-5.7 2.5-12.2 5.6c-23.7 11.2-48.6 19.8-75.7 26.4-15.8 3.8-46.1 9-52.5 9h-3.2v-49.9l3.3-.5c1.7-.3 8.6-1.2 15.2-2.1 31.8-4.2 64.6-12.3 94-23.3 10.3-3.9 28.4-11.9 30.2-13.3 1-.9 1.3-9 1.3-42.3v-41.2l-10.2 5.1c-25.4 12.8-60.9 24.6-94.3 31.4-13.7 2.8-37.5 6.2-38.6 5.5-.5-.3-.9-21.4-.9-50.4v-49.9l54.3-.3 54.2-.3 8.5-4.2c18.2-8.9 28.1-25.7 26.7-45.2-.9-14-7.4-26-18.2-33.9-12.4-9.1-8.6-8.6-70.7-9l-54.7-.3-.3-51.8-.3-51.8-4.2-8.5c-8.9-17.9-24.7-26.8-45.1-25.5-16.3 1-30.6 11-38 26.4l-3.7 7.8-.3 51.7-.3 51.8H930.1l-.3-50.3c-.4-49.6-.4-50.3-2.7-56.5-4.4-12-14.8-23.1-26.6-28.3-5.7-2.5-22.1-3.5-28.9-1.8M1119 964v50h-2.2c-5.3 0-26.3-4.2-39.3-7.9-20.4-5.7-31.6-9.9-57.2-21.2-37.1-16.4-59.6-24.4-80.8-28.7l-9-1.8-.3-20.2-.2-20.2h189zm-177.6 71.6c19.7 4.4 43.2 13.1 87.3 32.3 28.1 12.3 54.9 20.4 78.8 24l11 1.7.3 25.2c.2 24.4.2 25.2-1.7 25.2-4.4 0-29.6-5.2-40.7-8.4-17.3-5-31.3-10.2-53.4-19.9-39.2-17.1-55.8-23.1-79.3-28.7l-13.7-3.2V1033l2.3.5c1.2.3 5.3 1.2 9.1 2.1"/></svg>